<svg xmlns="http://www.w3.org/2000/svg" viewBox="0 0 64 64" width="1024" height="1024">
  <rect x="0" y="0" width="64" height="64" rx="14" fill="#141414"/>
  <g transform="translate(0 1)" stroke="#f5c451" fill="none" stroke-linecap="round">
    <path d="M32 26 C 31.5 38, 30 48, 26.5 59" stroke-width="2.2"/>
    <path d="M30 44 C 24 42, 20 44, 18 49 C 24 49, 28 48, 30 44 Z" stroke-width="1.4"/>
    <line x1="32" y1="26" x2="16.412" y2="17.000" stroke-width="1.3" opacity="0.9"/><circle cx="16.412" cy="17.000" r="1.5" fill="#f5c451" stroke="none"/>
    <line x1="32" y1="26" x2="21.676" y2="11.255" stroke-width="1.3" opacity="0.9"/><circle cx="21.676" cy="11.255" r="1.5" fill="#f5c451" stroke="none"/>
    <line x1="32" y1="26" x2="28.874" y2="8.273" stroke-width="1.3" opacity="0.9"/><circle cx="28.874" cy="8.273" r="1.5" fill="#f5c451" stroke="none"/>
    <line x1="32" y1="26" x2="36.659" y2="8.613" stroke-width="1.3" opacity="0.9"/><circle cx="36.659" cy="8.613" r="1.5" fill="#f5c451" stroke="none"/>
    <line x1="32" y1="26" x2="43.570" y2="12.211" stroke-width="1.3" opacity="0.9"/><circle cx="43.570" cy="12.211" r="1.5" fill="#f5c451" stroke="none"/>
    <line x1="32" y1="26" x2="48.314" y2="18.393" stroke-width="1.3" opacity="0.9"/><circle cx="48.314" cy="18.393" r="1.5" fill="#f5c451" stroke="none"/>
    <line x1="32" y1="26" x2="50.000" y2="26.000" stroke-width="1.3" opacity="0.9"/><circle cx="50.000" cy="26.000" r="1.5" fill="#f5c451" stroke="none"/>
    <line x1="32" y1="26" x2="48.314" y2="33.607" stroke-width="1.3" opacity="0.9"/><circle cx="48.314" cy="33.607" r="1.5" fill="#f5c451" stroke="none"/>
    <line x1="32" y1="26" x2="43.570" y2="39.789" stroke-width="1.3" opacity="0.9"/><circle cx="43.570" cy="39.789" r="1.5" fill="#f5c451" stroke="none"/>
    <line x1="32" y1="26" x2="36.659" y2="43.387" stroke-width="1.3" opacity="0.9"/><circle cx="36.659" cy="43.387" r="1.5" fill="#f5c451" stroke="none"/>
    <line x1="32" y1="26" x2="28.874" y2="43.727" stroke-width="1.3" opacity="0.9"/><circle cx="28.874" cy="43.727" r="1.5" fill="#f5c451" stroke="none"/>
    <line x1="32" y1="26" x2="21.676" y2="40.745" stroke-width="1.3" opacity="0.9"/><circle cx="21.676" cy="40.745" r="1.5" fill="#f5c451" stroke="none"/>
    <line x1="32" y1="26" x2="16.412" y2="35.000" stroke-width="1.3" opacity="0.9"/><circle cx="16.412" cy="35.000" r="1.5" fill="#f5c451" stroke="none"/>
    <line x1="48" y1="14" x2="53" y2="9" stroke-width="1.1" opacity="0.6"/>
    <circle cx="53" cy="9" r="1.4" fill="#f5c451" stroke="none" opacity="0.75"/>
    <line x1="52" y1="22" x2="58" y2="20" stroke-width="1.1" opacity="0.5"/>
    <circle cx="58" cy="20" r="1.2" fill="#f5c451" stroke="none" opacity="0.6"/>
    <circle cx="32" cy="26" r="2.4" fill="#f5c451" stroke="none"/>
  </g>
</svg>
